<svg xmlns="http://www.w3.org/2000/svg" xmlns:xlink="http://www.w3.org/1999/xlink" viewBox="0 0 24 30" version="1.1" x="0px" y="0px"><title>i24_photoedit_draw</title><desc>Created with Sketch.</desc><g stroke="none" stroke-width="1" fill="none" fill-rule="evenodd" transform="translate(-299.000000, -668.000000)"><g transform="translate(299.000000, 668.000000)" fill="#000000"><path d="M12.3949556,14.7654302 L11.7827357,15.5204577 L9.0516035,12.8034554 L9.81453387,12.1850085 L12.3949556,14.7654302 L12.3949556,14.7654302 Z M13.344831,13.5939853 L21.6596852,3.33959372 C21.695036,3.2959969 21.6881916,3.16617988 21.6463076,3.12429592 L21.4571669,2.93515519 C21.4167689,2.89475715 21.2840634,2.88756405 21.2418691,2.92177763 L10.9861325,11.2352868 L13.344831,13.5939853 L13.344831,13.5939853 Z M12.7995606,16.648064 L22.824792,4.28432974 C23.3438236,3.64422795 23.2920792,2.64874713 22.7069678,2.06363575 L22.5178271,1.87449502 C21.9366117,1.29327966 20.9384771,1.23663196 20.2971331,1.75667083 L7.72747526,11.9488769 C5.17919957,11.8205633 2.08364972,14.0635146 2.18866902,17.902019 C2.20799451,18.6083744 2.20060599,18.879299 2.16500074,19.0834897 C2.15972867,19.1137243 2.15345227,19.1451951 2.1456238,19.180752 C2.13305652,19.2378326 2.05054988,19.57033 2.02113888,19.6980738 C1.99639252,19.8055572 1.92022886,19.9569104 1.79973725,20.1284524 C1.63508357,20.3628674 1.42133186,20.5923445 1.22176571,20.7753086 C1.19842222,20.7967101 1.180666,20.8124226 1.17772386,20.8148775 C0.410572266,21.5587773 0.722908008,22.607133 1.73560902,22.7812124 L1.60479902,22.7463287 C1.82470746,22.8268476 2.36132032,22.9037758 3.47367854,22.9692475 C7.84446632,23.2265056 11.4845541,21.4011227 12.7039594,16.9936123 L12.7995606,16.648064 L12.7995606,16.648064 L12.7995606,16.648064 Z M8.61270563,20.3616911 C9.7548388,19.6260471 10.6281654,18.5191705 11.1330569,17.0048808 C10.5767177,16.4485416 7.57921245,13.4523847 7.57921245,13.4523847 C7.57921245,13.4523847 6.21850596,13.6876199 5.39833561,14.2471599 C4.27596319,15.0128695 3.64229084,16.1863591 3.68810793,17.8609952 C3.68997,17.9290545 3.69160635,17.9938266 3.69300653,18.0555822 C4.45955516,17.831558 5.55721832,17.4766675 5.55721832,17.4766675 L5.86142601,19.0840979 C5.86142601,19.0840979 7.39358138,19.2304541 8.37858307,18.524959 C9.03636858,18.0538283 9.34047786,19.1970844 8.61270563,20.3616911 L8.61270563,20.3616911 L8.61270563,20.3616911 Z"/></g></g><text x="0" y="39" fill="#000000" font-size="5px" font-weight="bold" font-family="'Helvetica Neue', Helvetica, Arial-Unicode, Arial, Sans-serif">Created by Denis Klyuchnikov</text><text x="0" y="44" fill="#000000" font-size="5px" font-weight="bold" font-family="'Helvetica Neue', Helvetica, Arial-Unicode, Arial, Sans-serif">from the Noun Project</text></svg>